<mxfile host="app.diagrams.net" modified="2020-11-03T02:37:16.151Z" agent="5.0 (Windows NT 10.0; Win64; x64) AppleWebKit/537.36 (KHTML, like Gecko) Chrome/86.0.4240.111 Safari/537.36 Edg/86.0.622.58" etag="K0R9KRHI1A0XReIu_DoR" version="13.8.8" type="github">
  <diagram id="2hkVyVaRWN60kcIebYXN" name="Page-1">
    <mxGraphModel dx="1021" dy="555" grid="1" gridSize="10" guides="1" tooltips="1" connect="1" arrows="1" fold="1" page="1" pageScale="1" pageWidth="850" pageHeight="1100" math="0" shadow="0">
      <root>
        <mxCell id="0" />
        <mxCell id="1" parent="0" />
        <mxCell id="XO2ayVLeyARKnn1RVpAp-1" value="Pemodelan Bisnis Cuti Karyawan" style="swimlane;html=1;childLayout=stackLayout;resizeParent=1;resizeParentMax=0;horizontal=1;startSize=20;horizontalStack=0;" parent="1" vertex="1">
          <mxGeometry x="80" y="40" width="1090" height="580" as="geometry" />
        </mxCell>
        <mxCell id="XO2ayVLeyARKnn1RVpAp-19" style="edgeStyle=orthogonalEdgeStyle;rounded=0;orthogonalLoop=1;jettySize=auto;html=1;exitX=0.5;exitY=1;exitDx=0;exitDy=0;entryX=0.5;entryY=0;entryDx=0;entryDy=0;" parent="XO2ayVLeyARKnn1RVpAp-1" source="XO2ayVLeyARKnn1RVpAp-12" target="XO2ayVLeyARKnn1RVpAp-15" edge="1">
          <mxGeometry relative="1" as="geometry" />
        </mxCell>
        <mxCell id="XO2ayVLeyARKnn1RVpAp-2" value="Karyawan" style="swimlane;html=1;startSize=20;horizontal=0;" parent="XO2ayVLeyARKnn1RVpAp-1" vertex="1">
          <mxGeometry y="20" width="1090" height="150" as="geometry" />
        </mxCell>
        <mxCell id="XO2ayVLeyARKnn1RVpAp-11" style="edgeStyle=orthogonalEdgeStyle;rounded=0;orthogonalLoop=1;jettySize=auto;html=1;exitX=1;exitY=0.5;exitDx=0;exitDy=0;" parent="XO2ayVLeyARKnn1RVpAp-2" source="IoVXxjxD7XgOjCrK-ujd-1" target="XO2ayVLeyARKnn1RVpAp-10" edge="1">
          <mxGeometry relative="1" as="geometry">
            <mxPoint x="110" y="53" as="sourcePoint" />
          </mxGeometry>
        </mxCell>
        <mxCell id="XO2ayVLeyARKnn1RVpAp-13" style="edgeStyle=orthogonalEdgeStyle;rounded=0;orthogonalLoop=1;jettySize=auto;html=1;exitX=1;exitY=0.5;exitDx=0;exitDy=0;entryX=0;entryY=0.5;entryDx=0;entryDy=0;" parent="XO2ayVLeyARKnn1RVpAp-2" source="XO2ayVLeyARKnn1RVpAp-10" target="XO2ayVLeyARKnn1RVpAp-12" edge="1">
          <mxGeometry relative="1" as="geometry" />
        </mxCell>
        <mxCell id="XO2ayVLeyARKnn1RVpAp-10" value="Mengisi Formulir Pengajuan cuti di aplikasi cuti" style="shape=ext;rounded=1;html=1;whiteSpace=wrap;" parent="XO2ayVLeyARKnn1RVpAp-2" vertex="1">
          <mxGeometry x="150" y="22.5" width="100" height="60" as="geometry" />
        </mxCell>
        <mxCell id="XO2ayVLeyARKnn1RVpAp-12" value="Submit formulir" style="shape=ext;rounded=1;html=1;whiteSpace=wrap;" parent="XO2ayVLeyARKnn1RVpAp-2" vertex="1">
          <mxGeometry x="320" y="22.5" width="120" height="60" as="geometry" />
        </mxCell>
        <mxCell id="IoVXxjxD7XgOjCrK-ujd-1" value="START" style="ellipse;whiteSpace=wrap;html=1;" vertex="1" parent="XO2ayVLeyARKnn1RVpAp-2">
          <mxGeometry x="49" y="28.75" width="70" height="47.5" as="geometry" />
        </mxCell>
        <mxCell id="IoVXxjxD7XgOjCrK-ujd-17" style="edgeStyle=orthogonalEdgeStyle;rounded=0;orthogonalLoop=1;jettySize=auto;html=1;exitX=0;exitY=0.5;exitDx=0;exitDy=0;entryX=1;entryY=0.5;entryDx=0;entryDy=0;" edge="1" parent="XO2ayVLeyARKnn1RVpAp-2" source="IoVXxjxD7XgOjCrK-ujd-13" target="IoVXxjxD7XgOjCrK-ujd-16">
          <mxGeometry relative="1" as="geometry" />
        </mxCell>
        <mxCell id="IoVXxjxD7XgOjCrK-ujd-13" value="Menerima notifikasi email dari aplikasi cuti bahwa ajuan di tolak" style="shape=ext;rounded=1;html=1;whiteSpace=wrap;" vertex="1" parent="XO2ayVLeyARKnn1RVpAp-2">
          <mxGeometry x="620" y="22.5" width="120" height="60" as="geometry" />
        </mxCell>
        <mxCell id="IoVXxjxD7XgOjCrK-ujd-16" value="END" style="ellipse;whiteSpace=wrap;html=1;" vertex="1" parent="XO2ayVLeyARKnn1RVpAp-2">
          <mxGeometry x="520" y="28.75" width="70" height="47.5" as="geometry" />
        </mxCell>
        <mxCell id="IoVXxjxD7XgOjCrK-ujd-22" style="edgeStyle=orthogonalEdgeStyle;rounded=0;orthogonalLoop=1;jettySize=auto;html=1;exitX=1;exitY=0.5;exitDx=0;exitDy=0;entryX=0;entryY=0.5;entryDx=0;entryDy=0;" edge="1" parent="XO2ayVLeyARKnn1RVpAp-2" source="IoVXxjxD7XgOjCrK-ujd-19" target="IoVXxjxD7XgOjCrK-ujd-21">
          <mxGeometry relative="1" as="geometry" />
        </mxCell>
        <mxCell id="IoVXxjxD7XgOjCrK-ujd-19" value="Menerima notifikasi email dari aplikasi cuti bahwa diperbolehkan cuti" style="shape=ext;rounded=1;html=1;whiteSpace=wrap;" vertex="1" parent="XO2ayVLeyARKnn1RVpAp-2">
          <mxGeometry x="790" y="22.5" width="120" height="60" as="geometry" />
        </mxCell>
        <mxCell id="IoVXxjxD7XgOjCrK-ujd-21" value="END" style="ellipse;whiteSpace=wrap;html=1;" vertex="1" parent="XO2ayVLeyARKnn1RVpAp-2">
          <mxGeometry x="960" y="28.75" width="70" height="47.5" as="geometry" />
        </mxCell>
        <mxCell id="XO2ayVLeyARKnn1RVpAp-3" value="Manager" style="swimlane;html=1;startSize=20;horizontal=0;" parent="XO2ayVLeyARKnn1RVpAp-1" vertex="1">
          <mxGeometry y="170" width="1090" height="160" as="geometry" />
        </mxCell>
        <mxCell id="XO2ayVLeyARKnn1RVpAp-17" style="edgeStyle=orthogonalEdgeStyle;rounded=0;orthogonalLoop=1;jettySize=auto;html=1;exitX=1;exitY=0.5;exitDx=0;exitDy=0;entryX=0;entryY=0.5;entryDx=0;entryDy=0;" parent="XO2ayVLeyARKnn1RVpAp-3" source="XO2ayVLeyARKnn1RVpAp-15" target="XO2ayVLeyARKnn1RVpAp-16" edge="1">
          <mxGeometry relative="1" as="geometry" />
        </mxCell>
        <mxCell id="XO2ayVLeyARKnn1RVpAp-15" value="Menerima notifikasi email dari aplikasi cuti" style="shape=ext;rounded=1;html=1;whiteSpace=wrap;" parent="XO2ayVLeyARKnn1RVpAp-3" vertex="1">
          <mxGeometry x="320" y="20" width="120" height="60" as="geometry" />
        </mxCell>
        <mxCell id="XO2ayVLeyARKnn1RVpAp-16" value="Disetujui?" style="rhombus;whiteSpace=wrap;html=1;" parent="XO2ayVLeyARKnn1RVpAp-3" vertex="1">
          <mxGeometry x="500" y="22.5" width="60" height="55" as="geometry" />
        </mxCell>
        <mxCell id="h7j8zELdkNYJsOl2Fy25-1" value="tidak&lt;br&gt;" style="text;html=1;align=center;verticalAlign=middle;resizable=0;points=[];autosize=1;" parent="XO2ayVLeyARKnn1RVpAp-3" vertex="1">
          <mxGeometry x="560" y="30" width="40" height="20" as="geometry" />
        </mxCell>
        <mxCell id="h7j8zELdkNYJsOl2Fy25-17" value="Ya" style="text;html=1;align=center;verticalAlign=middle;resizable=0;points=[];autosize=1;" parent="XO2ayVLeyARKnn1RVpAp-3" vertex="1">
          <mxGeometry x="530" y="80" width="30" height="20" as="geometry" />
        </mxCell>
        <mxCell id="IoVXxjxD7XgOjCrK-ujd-4" style="edgeStyle=orthogonalEdgeStyle;rounded=0;orthogonalLoop=1;jettySize=auto;html=1;exitX=0.5;exitY=1;exitDx=0;exitDy=0;entryX=0.5;entryY=0;entryDx=0;entryDy=0;" edge="1" parent="XO2ayVLeyARKnn1RVpAp-1" source="XO2ayVLeyARKnn1RVpAp-16" target="h7j8zELdkNYJsOl2Fy25-20">
          <mxGeometry relative="1" as="geometry" />
        </mxCell>
        <mxCell id="XO2ayVLeyARKnn1RVpAp-4" value="Human Resource" style="swimlane;html=1;startSize=20;horizontal=0;" parent="XO2ayVLeyARKnn1RVpAp-1" vertex="1">
          <mxGeometry y="330" width="1090" height="250" as="geometry" />
        </mxCell>
        <mxCell id="h7j8zELdkNYJsOl2Fy25-31" style="edgeStyle=orthogonalEdgeStyle;rounded=0;orthogonalLoop=1;jettySize=auto;html=1;exitX=0;exitY=0.5;exitDx=0;exitDy=0;entryX=1;entryY=0.5;entryDx=0;entryDy=0;" parent="XO2ayVLeyARKnn1RVpAp-4" source="h7j8zELdkNYJsOl2Fy25-20" target="h7j8zELdkNYJsOl2Fy25-21" edge="1">
          <mxGeometry relative="1" as="geometry" />
        </mxCell>
        <mxCell id="h7j8zELdkNYJsOl2Fy25-20" value="Cek kuota dan kelengkapan dokumen" style="rounded=1;whiteSpace=wrap;html=1;" parent="XO2ayVLeyARKnn1RVpAp-4" vertex="1">
          <mxGeometry x="470" y="50" width="120" height="60" as="geometry" />
        </mxCell>
        <mxCell id="h7j8zELdkNYJsOl2Fy25-32" style="edgeStyle=orthogonalEdgeStyle;rounded=0;orthogonalLoop=1;jettySize=auto;html=1;exitX=0;exitY=0.5;exitDx=0;exitDy=0;entryX=1;entryY=0.5;entryDx=0;entryDy=0;" parent="XO2ayVLeyARKnn1RVpAp-4" source="h7j8zELdkNYJsOl2Fy25-21" target="h7j8zELdkNYJsOl2Fy25-22" edge="1">
          <mxGeometry relative="1" as="geometry" />
        </mxCell>
        <mxCell id="h7j8zELdkNYJsOl2Fy25-21" value="valid?" style="rhombus;whiteSpace=wrap;html=1;" parent="XO2ayVLeyARKnn1RVpAp-4" vertex="1">
          <mxGeometry x="370" y="52.5" width="60" height="55" as="geometry" />
        </mxCell>
        <mxCell id="h7j8zELdkNYJsOl2Fy25-22" value="menyetujui cuti" style="rounded=1;whiteSpace=wrap;html=1;" parent="XO2ayVLeyARKnn1RVpAp-4" vertex="1">
          <mxGeometry x="210" y="50" width="120" height="60" as="geometry" />
        </mxCell>
        <mxCell id="Xj0MNiKohOOQBf-PD9Ly-7" value="Tidak" style="text;html=1;align=center;verticalAlign=middle;resizable=0;points=[];autosize=1;" parent="XO2ayVLeyARKnn1RVpAp-4" vertex="1">
          <mxGeometry x="400" y="107.5" width="40" height="20" as="geometry" />
        </mxCell>
        <mxCell id="Xj0MNiKohOOQBf-PD9Ly-1" value="Ya" style="text;html=1;align=center;verticalAlign=middle;resizable=0;points=[];autosize=1;" parent="XO2ayVLeyARKnn1RVpAp-4" vertex="1">
          <mxGeometry x="340" y="52.5" width="30" height="20" as="geometry" />
        </mxCell>
        <mxCell id="h7j8zELdkNYJsOl2Fy25-2" style="edgeStyle=orthogonalEdgeStyle;rounded=0;orthogonalLoop=1;jettySize=auto;html=1;exitX=1;exitY=0.5;exitDx=0;exitDy=0;entryX=0.5;entryY=1;entryDx=0;entryDy=0;" parent="XO2ayVLeyARKnn1RVpAp-1" source="XO2ayVLeyARKnn1RVpAp-16" target="IoVXxjxD7XgOjCrK-ujd-13" edge="1">
          <mxGeometry relative="1" as="geometry">
            <mxPoint x="620" y="220" as="targetPoint" />
          </mxGeometry>
        </mxCell>
        <mxCell id="IoVXxjxD7XgOjCrK-ujd-24" style="edgeStyle=orthogonalEdgeStyle;rounded=0;orthogonalLoop=1;jettySize=auto;html=1;exitX=0;exitY=0.5;exitDx=0;exitDy=0;entryX=0.5;entryY=1;entryDx=0;entryDy=0;" edge="1" parent="XO2ayVLeyARKnn1RVpAp-1" source="h7j8zELdkNYJsOl2Fy25-22" target="IoVXxjxD7XgOjCrK-ujd-19">
          <mxGeometry relative="1" as="geometry">
            <Array as="points">
              <mxPoint x="190" y="410" />
              <mxPoint x="190" y="300" />
              <mxPoint x="850" y="300" />
            </Array>
          </mxGeometry>
        </mxCell>
        <mxCell id="IoVXxjxD7XgOjCrK-ujd-8" style="edgeStyle=orthogonalEdgeStyle;rounded=0;orthogonalLoop=1;jettySize=auto;html=1;exitX=0.5;exitY=1;exitDx=0;exitDy=0;entryX=1;entryY=0.25;entryDx=0;entryDy=0;" edge="1" parent="XO2ayVLeyARKnn1RVpAp-1" source="h7j8zELdkNYJsOl2Fy25-21" target="IoVXxjxD7XgOjCrK-ujd-13">
          <mxGeometry relative="1" as="geometry">
            <mxPoint x="400" y="470" as="targetPoint" />
            <Array as="points">
              <mxPoint x="400" y="470" />
              <mxPoint x="760" y="470" />
              <mxPoint x="760" y="57" />
            </Array>
          </mxGeometry>
        </mxCell>
      </root>
    </mxGraphModel>
  </diagram>
</mxfile>
